<svg width="35" height="34" viewBox="0 0 35 34" fill="none" xmlns="http://www.w3.org/2000/svg">
<path d="M17.516 24.1111C21.57 24.1111 24.8565 20.9273 24.8565 17C24.8565 13.0727 21.57 9.88892 17.516 9.88892C13.462 9.88892 10.1755 13.0727 10.1755 17C10.1755 20.9273 13.462 24.1111 17.516 24.1111Z" stroke="black" stroke-width="1.2121" stroke-linecap="round" stroke-linejoin="round"/>
<path d="M1 24.1111V9.88889C1 4.9797 5.10808 1 10.1756 1H24.8566C29.9241 1 34.0323 4.9797 34.0323 9.88889V24.1111C34.0323 29.0203 29.9241 33 24.8566 33H10.1756C5.10808 33 1 29.0203 1 24.1111Z" stroke="black" stroke-width="1.2121"/>
<path d="M27.6094 7.23824L27.6266 7.21973" stroke="black" stroke-width="1.2121" stroke-linecap="round" stroke-linejoin="round"/>
</svg>
