<svg width="35" height="35" viewBox="0 0 35 35" fill="none" xmlns="http://www.w3.org/2000/svg">
<path d="M17.516 25.031C21.57 25.031 24.8565 21.7205 24.8565 17.6369C24.8565 13.5532 21.57 10.2427 17.516 10.2427C13.462 10.2427 10.1755 13.5532 10.1755 17.6369C10.1755 21.7205 13.462 25.031 17.516 25.031Z" stroke="black" stroke-width="1.2121" stroke-linecap="round" stroke-linejoin="round"/>
<path d="M1 25.0311V10.2427C1 5.13812 5.10808 1 10.1756 1H24.8566C29.9241 1 34.0323 5.13812 34.0323 10.2427V25.0311C34.0323 30.1357 29.9241 34.2738 24.8566 34.2738H10.1756C5.10808 34.2738 1 30.1357 1 25.0311Z" stroke="black" stroke-width="1.2121"/>
<path d="M27.6094 7.4858L27.6266 7.46729" stroke="black" stroke-width="1.2121" stroke-linecap="round" stroke-linejoin="round"/>
</svg>
