<svg width="35" height="33" viewBox="0 0 35 33" fill="none" xmlns="http://www.w3.org/2000/svg">
<path d="M17.5158 23.3887C21.5698 23.3887 24.8563 20.3044 24.8563 16.4999C24.8563 12.6952 21.5698 9.61096 17.5158 9.61096C13.4617 9.61096 10.1753 12.6952 10.1753 16.4999C10.1753 20.3044 13.4617 23.3887 17.5158 23.3887Z" stroke="black" stroke-width="1.2121" stroke-linecap="round" stroke-linejoin="round"/>
<path d="M1 23.3889V9.61111C1 4.85533 5.10808 1 10.1756 1H24.8566C29.9241 1 34.0323 4.85533 34.0323 9.61111V23.3889C34.0323 28.1446 29.9241 32 24.8566 32H10.1756C5.10808 32 1 28.1446 1 23.3889Z" stroke="black" stroke-width="1.2121"/>
<path d="M27.6094 7.04269L27.6266 7.02527" stroke="black" stroke-width="1.2121" stroke-linecap="round" stroke-linejoin="round"/>
</svg>
